<svg width="211" height="372" viewBox="0 0 211 372" fill="none" xmlns="http://www.w3.org/2000/svg">
<path d="M0.0986099 11.4962C-0.245773 9.05048 0.318726 6.56333 1.68515 4.50607C3.05157 2.44881 5.12498 0.964382 7.51248 0.334072C9.89997 -0.296237 12.4357 -0.0286405 14.6391 1.08616C16.8425 2.20097 18.5606 4.08553 19.4677 6.38272L40.751 30.7889L34.5061 48.2352L13.1018 19.7176C11.7051 20.1651 10.2273 20.3009 8.77242 20.1153C7.31757 19.9297 5.92107 19.4273 4.68133 18.6435C3.44159 17.8597 2.38878 16.8135 1.597 15.5786C0.805214 14.3437 0.293724 12.9502 0.0986099 11.4962Z" fill="#FFB7B7"/>
<path d="M88.321 106.461L17.6716 31.0415L27.2011 15.8873L115.813 90.8486L88.321 106.461Z" fill="#3F3D56"/>
<path d="M106.155 60.6365C92.4679 60.6365 81.3725 49.5382 81.3725 35.8477C81.3725 22.1573 92.4679 11.059 106.155 11.059C119.842 11.059 130.937 22.1573 130.937 35.8477C130.937 49.5382 119.842 60.6365 106.155 60.6365Z" fill="#2F2E41"/>
<path d="M104.163 21.8444C98.8299 16.4352 92.3766 12.261 85.2571 9.61577C80.687 7.92228 75.7128 6.87596 70.9351 7.83772C66.1571 8.79943 61.6389 12.1056 60.3059 16.7946C59.216 20.6288 60.3414 24.7571 62.033 28.3665C63.7244 31.9758 65.9827 35.3228 67.3506 39.0669C68.7463 42.8871 69.166 46.9955 68.5717 51.0192C67.9774 55.0429 66.3878 58.8544 63.9472 62.1077C61.5067 65.361 58.2925 67.9531 54.5964 69.6487C50.9003 71.3443 46.8394 72.0897 42.7823 71.8172C47.4767 72.4468 51.804 74.6535 56.3925 75.828C60.9811 77.0026 66.3968 76.923 69.8067 73.6348C73.4146 70.1558 73.4868 64.4993 73.3123 59.4897C73.053 52.0428 72.7937 44.5958 72.5344 37.1488C72.4021 33.351 72.2892 29.4315 73.6586 25.8868C75.0278 22.3421 78.2819 19.2381 82.0808 19.2704C84.9601 19.2948 87.5085 21.0395 89.8174 22.7601C92.1266 24.4807 94.5704 26.3164 97.4385 26.5723C100.306 26.8282 103.581 24.7053 103.366 21.8332L104.163 21.8444Z" fill="#2F2E41"/>
<path d="M198.214 202.293C200.593 202.954 203.132 202.719 205.349 201.633C207.567 200.546 209.309 198.684 210.246 196.399C211.183 194.114 211.249 191.564 210.432 189.233C209.615 186.903 207.971 184.952 205.813 183.753L184.404 159.457L166.295 163.371L191.764 188.323C191.138 189.65 190.81 191.098 190.804 192.565C190.798 194.032 191.114 195.482 191.728 196.814C192.343 198.146 193.243 199.327 194.363 200.273C195.484 201.22 196.798 201.909 198.214 202.293Z" fill="#FFB7B7"/>
<path d="M127.776 115.313L181.137 182.312L197.403 174.842L134.683 77.1707L127.776 115.313Z" fill="#3F3D56"/>
<path d="M170.354 317.621L183.071 317.422L181.542 360.779H170.356L170.354 317.621Z" fill="#FFB7B7"/>
<path d="M167.503 357.126L189.532 357.125H189.533C193.256 357.125 196.827 358.604 199.46 361.238C202.092 363.871 203.572 367.443 203.572 371.167V371.623L167.503 371.625L167.503 357.126Z" fill="#2F2E41"/>
<path d="M86.1512 306.122L100.044 315.043L72.2545 348.484L62.8414 342.439L86.1512 306.122Z" fill="#FFB7B7"/>
<path d="M62.4137 337.823L80.9516 349.728L80.9523 349.728C84.0853 351.74 86.2908 354.915 87.0838 358.554C87.8768 362.193 87.1923 365.997 85.1809 369.131L84.9345 369.515L54.5828 350.024L62.4137 337.823Z" fill="#2F2E41"/>
<path d="M81.2021 173.729C81.2021 173.729 112.069 71.1805 121.989 69.7947C131.909 68.4089 147.892 96.1073 147.892 96.1073C168.615 122.554 189.984 208.222 189.984 208.222C189.984 208.222 154.362 210.452 128.322 224.31C102.282 238.168 71.5513 223.608 71.5513 223.608L81.2021 173.729Z" fill="#3F3D56"/>
<path opacity="0.1" d="M81.2021 173.729C81.2021 173.729 112.069 71.1805 121.989 69.7947C131.909 68.4089 143.833 96.3884 143.833 96.3884C154.159 139.08 189.984 208.222 189.984 208.222C189.984 208.222 154.362 210.452 128.322 224.31C102.282 238.168 71.5513 223.608 71.5513 223.608L81.2021 173.729Z" fill="black"/>
<path d="M106.526 143.047V194.576L100.464 269.221L70.1743 325.684L84.6307 336.013L125.934 282.304L142.271 228.974L167.927 347.03L187.202 345.653L173.815 181.971L148.413 135.898L106.526 143.047Z" fill="#2F2E41"/>
<path d="M137.648 93.2061C147.286 102.846 138.337 113.175 138.337 113.175L149.351 137.964L105.982 149.669L90.8262 81.9284L101.152 70.9111C121.804 70.2225 121.815 69.7944 121.815 69.7944C125.434 73.3364 137.648 93.2061 137.648 93.2061Z" fill="#6C63FF"/>
<path d="M89.0798 74.9106C91.0496 73.4562 93.2882 72.4073 95.6661 71.8244C98.044 71.2416 100.514 71.1365 102.933 71.5152C105.351 71.8939 107.671 72.7488 109.757 74.0306C111.843 75.3123 113.654 76.9954 115.086 78.9822C125.988 94.1669 136.07 118.686 122.179 149.266C99.876 198.369 80.4672 223.505 72.5768 223.502C72.2323 223.505 71.8897 223.451 71.5627 223.343C66.706 221.695 59.6839 213.474 58.4126 206.23C57.9575 203.637 58.0657 200.026 61.1659 197.546C70.0706 190.421 86.0567 168.239 91.0435 139.041C93.7995 122.908 88.455 108.212 83.4863 98.7253C81.3876 94.7998 80.7737 90.2492 81.757 85.9077C82.7403 81.5661 85.2551 77.7245 88.8402 75.0871L89.0798 74.9106Z" fill="#3F3D56"/>
<path d="M104.88 58.2013C96.0398 53.3675 92.7908 42.2803 97.6234 33.4376C102.456 24.5948 113.54 21.345 122.381 26.1789C131.221 31.0127 134.47 42.0999 129.637 50.9427C124.805 59.7854 113.721 63.0352 104.88 58.2013Z" fill="#FFB7B7"/>
<path d="M139.286 40.8105H112.944L112.674 37.0276L111.323 40.8105H107.267L106.732 33.3129L104.055 40.8105H96.2067V40.439C96.2125 35.2193 98.2881 30.215 101.978 26.5241C105.668 22.8331 110.671 20.757 115.889 20.7511H119.603C124.822 20.757 129.824 22.8331 133.514 26.524C137.204 30.215 139.28 35.2193 139.286 40.439V40.8105Z" fill="#2F2E41"/>
<path d="M100.186 54.4079L88.9448 50.7593V23.4534H110.178L109.652 23.9784C102.338 31.2848 94.204 57.2071 100.186 54.4079Z" fill="#2F2E41"/>
</svg>
