<svg width="288" height="322" viewBox="0 0 288 322" fill="none" xmlns="http://www.w3.org/2000/svg">
<g clip-path="url(#clip0_15_131)">
<path d="M77.3633 280.458V300.896L61.9288 301.395L62.5724 280.458H77.3633Z" fill="#F0AEAE"/>
<path d="M80.4152 291.828C80.6228 291.828 80.8303 291.854 81.0276 291.911C83.8145 292.707 99.934 307.122 104.807 311.518C105.409 312.064 105.731 312.838 105.684 313.649C105.643 314.454 105.238 315.187 104.584 315.66C100.889 318.326 93.3118 322.545 84.1259 320.841C79.9014 320.056 75.6354 319.562 71.8676 319.131C63.8079 318.201 57.4452 317.463 57.4452 314.61C57.4452 309.762 58.7738 296.994 60.4449 296.458C60.5954 296.412 60.7718 296.531 60.9742 296.812C63.5276 300.392 72.3087 298.49 72.6824 298.407L72.781 298.386L72.8381 298.303C72.8848 298.236 77.1819 291.839 80.4152 291.839V291.828Z" fill="#2F2E41"/>
<path d="M106.234 280.458V300.896L90.8051 301.395L91.4487 280.458H106.234Z" fill="#F0AEAE"/>
<path d="M112.457 134.159L120.672 140.39L122.167 210.673L108.227 287.437L90.0575 288.186L89.5593 214.909L66.1585 148.117L70.8916 132.413L112.457 134.159Z" fill="#2F2E41"/>
<path d="M74.1251 146.122L66.1588 148.117L60.4344 287.437L81.095 285.691L94.7856 187.242L74.1251 146.122Z" fill="#2F2E41"/>
<path d="M117.252 321.729C124.336 321.729 130.086 318.596 133.159 316.481C134.088 315.842 134.664 314.828 134.736 313.701C134.809 312.563 134.368 311.471 133.522 310.707C125.893 303.838 112.701 292.197 110.038 291.433C106.587 290.441 101.952 297.051 101.356 297.929C100.39 298.127 92.4863 299.639 90.2599 296.51C89.8343 295.913 89.4347 295.887 89.1752 295.97C86.7931 296.734 85.8278 312.095 85.8278 314.6C85.8278 317.9 92.0607 318.622 100.691 319.62C104.449 320.056 108.704 320.545 112.913 321.324C114.408 321.599 115.856 321.724 117.257 321.724L117.252 321.729Z" fill="#2F2E41"/>
<path d="M175.471 43.2244C178.108 37.3938 177.116 31.2826 173.255 29.5834C169.394 27.8841 164.126 31.2359 161.49 37.0716C160.405 39.3893 159.907 41.9356 160.047 44.4975L149.2 69.3579L161.438 74.2739L170.831 49.2472C172.856 47.6363 174.449 45.5732 175.471 43.2296C175.471 43.2296 175.471 43.2244 175.471 43.2244Z" fill="#F0AEAE"/>
<path d="M100.494 53.7786C93.8826 60.0249 94.2926 70.6779 101.371 76.3889L136.039 104.357C139.823 107.407 145.438 106.332 147.825 102.091C156.933 87.3225 158.651 86.5118 163.95 71.3794L149.019 66.1517L140.601 76.7059L122.219 54.9946C116.666 48.4314 106.748 47.8805 100.5 53.7786L100.494 53.7786Z" fill="#2A4A8D"/>
<path d="M95.3875 43.1256L89.7203 54.5633L111.149 64.9252L110.889 46.5866L95.3875 43.1256Z" fill="#F0AEAE"/>
<path d="M111.076 51.778C100.425 51.778 91.791 43.1324 91.791 32.4675C91.791 21.8026 100.425 13.157 111.076 13.157C121.727 13.157 130.362 21.8026 130.362 32.4675C130.362 43.1324 121.727 51.778 111.076 51.778Z" fill="#F0AEAE"/>
<path d="M111.206 60.4666L91.4329 48.7691C76.9326 58.9544 64.856 61.3344 64.4719 79.0651L67.1446 121.36L66.989 139.574C66.9215 147.223 73.0973 153.454 80.7315 153.454H108.964C116.437 153.454 122.001 146.553 120.428 139.236L115.098 114.454L120.792 66.1568L111.206 60.4562V60.4666Z" fill="#2A4A8D"/>
<path d="M221.453 36.1986C221.453 35.1853 220.633 34.3694 219.626 34.3694H199.017C198.005 34.3694 197.19 35.1905 197.19 36.1986V36.4481L146.367 39.4257C146.221 38.8489 145.702 38.4176 145.074 38.4176H139.672V34.463C139.672 33.5796 138.956 32.8676 138.079 32.8676H136.978V29.3755C136.978 28.8195 136.527 28.3674 135.971 28.3674H132.894C132.339 28.3674 131.887 28.8195 131.887 29.3755V32.8676H130.875C130.948 32.7273 130.989 32.5766 130.989 32.4155C130.989 31.6724 130.117 31.0644 129.043 31.0644C127.969 31.0644 127.097 31.6672 127.097 32.4155C127.097 32.6078 127.159 32.7949 127.263 32.9612C126.645 33.1794 126.194 33.7666 126.194 34.463V54.9686C126.194 55.8521 126.91 56.564 127.787 56.564H138.079C138.961 56.564 139.672 55.8469 139.672 54.9686V52.2145H145.074C145.77 52.2145 146.336 51.6792 146.398 50.9985L197.273 60.3783C197.507 61.1214 198.197 61.6618 199.017 61.6618H219.626C220.638 61.6618 221.453 60.8408 221.453 59.8326C221.696 51.4662 221.157 43.5206 221.453 36.1986Z" fill="#3F3D56"/>
<path d="M141.873 49.0757C144.442 43.214 143.378 37.1184 139.496 35.4607C135.614 33.8082 130.388 37.2171 127.819 43.0841C126.76 45.4121 126.293 47.9636 126.464 50.5256L115.908 75.5107L128.203 80.2863L137.306 55.1505C139.314 53.5188 140.881 51.4349 141.873 49.0757Z" fill="#F0AEAE"/>
<path d="M67.0254 60.5082C60.4862 66.8324 61.026 77.4802 68.1671 83.1081L103.157 110.665C106.976 113.674 112.576 112.531 114.917 108.265C123.854 93.3921 124.575 95.4136 129.697 80.2188L115.918 71.5197L107.397 82.9678L88.7654 61.4747C83.1345 54.979 73.2116 54.5425 67.0305 60.5134H67.0254C67.0254 60.5134 67.0254 60.5082 67.0254 60.5082Z" fill="#2A4A8D"/>
<path d="M91.2459 42.1799L94.8113 44.7366C94.8113 44.7366 95.8596 33.5899 97.3076 33.0963C98.7555 32.6026 100.707 35.1697 100.707 35.1697L102.134 39.3529L106.852 37.3834C106.852 37.3834 112.311 34.437 114.242 33.777C116.172 33.1171 115.882 27.5151 115.882 27.5151C115.882 27.5151 139.049 30.6903 135.572 17.3195C135.572 17.3195 134.373 7.48237 131.809 9.43628C129.246 11.3902 129.209 6.54699 129.209 6.54699L123.397 5.29461C123.397 5.29461 115.42 -5.46229 99.6845 3.68887C83.949 12.84 91.251 42.1695 91.251 42.1695V42.1799H91.2459Z" fill="#2F2E41"/>
</g>
<defs>
<clipPath id="clip0_15_131">
<rect width="379.721" height="321.729" fill="white" transform="matrix(-1 0 0 1 287.721 0)"/>
</clipPath>
</defs>
</svg>
