<svg width="142" height="341" viewBox="0 0 142 341" fill="none" xmlns="http://www.w3.org/2000/svg">
<path d="M140.945 64.217L136.273 63.495C135.629 60.1885 134.678 56.9325 133.44 53.7993C133.969 56.8459 133.769 60.0152 132.896 62.9752L82.5925 55.2143C85.0537 44.2985 86.4488 34.0974 85.6189 25.3691C84.3812 12.2731 93.9969 0.483696 107.025 0.0216368C107.383 0.00722678 107.748 0 108.113 0C120.183 0 130.149 7.11836 131.601 16.3159C132.116 19.608 132.839 22.8712 133.44 26.156C135.694 38.458 145.123 54.8533 140.945 64.217Z" fill="#2F2E41"/>
<path d="M8.71643 83.8049C10.3391 84.4844 11.6753 85.4773 12.5827 86.5787L28.4464 92.066L25.6379 99.6067L9.84817 93.2284C8.43454 93.3579 6.79431 93.1047 5.17159 92.4252C1.4645 90.873 -0.747109 87.685 0.231779 85.3046C1.21067 82.9241 5.00935 82.2527 8.71643 83.8049Z" fill="#F0AEAE"/>
<path d="M59.726 325.855L53.452 326.005L49.9548 297.563L59.2136 297.342L59.726 325.855Z" fill="#FFB7B7"/>
<path d="M38.2005 339.063C38.2005 340.133 38.9526 341 39.8804 341H52.3337C52.3337 341 53.5592 336.029 58.5558 333.89L58.9007 341H65.3249L64.5465 329.567C64.5465 329.567 66.265 323.451 62.6961 320.324C59.127 317.197 62.0178 317.633 62.0178 317.633L60.6138 310.557L50.9061 311.709L50.8348 322.816L46.1237 333.842L39.2137 337.286C38.5987 337.593 38.2005 338.291 38.2005 339.063Z" fill="#2F2E41"/>
<path d="M127.17 325.855L120.896 326.005L117.399 297.563L126.658 297.342L127.17 325.855Z" fill="#FFB7B7"/>
<path d="M105.645 339.063C105.645 340.133 106.397 341 107.325 341H119.779C119.779 341 121.004 336.029 126.001 333.89L126.345 341H132.77L131.991 329.567C131.991 329.567 133.71 323.451 130.141 320.324C126.572 317.197 129.463 317.633 129.463 317.633L128.059 310.557L118.351 311.709L118.28 322.816L113.569 333.842L106.658 337.286C106.043 337.593 105.645 338.291 105.645 339.063Z" fill="#2F2E41"/>
<path d="M76.5542 119.085L115.189 125.582C120.254 134.031 130.213 166.011 130.213 166.011C130.213 166.011 127.604 254.856 129.835 306.258L113.758 306.79L92.2942 192.001L63.676 303.902L48.0647 305.017L50.0823 225.211C50.0823 225.211 71.6545 120.074 76.5542 119.085Z" fill="#2F2E41"/>
<path d="M99.3007 60.9219L63.1109 110.215L20.6887 98.4279L22.5332 87.2609L54.8361 93.4345L72.8575 65.4782C78.7421 54.0001 90.3403 51.6885 99.3007 60.9219Z" fill="#2A4A8D"/>
<path d="M103.966 41.8875C113.393 41.8875 121.034 34.1764 121.034 24.6644C121.034 15.1523 113.393 7.44125 103.966 7.44125C94.5395 7.44125 86.8977 15.1523 86.8977 24.6644C86.8977 34.1764 94.5395 41.8875 103.966 41.8875Z" fill="#FFB7B7"/>
<path d="M119.839 179.24C120.319 177.535 121.14 176.08 122.119 175.042L125.674 158.505L133.423 160.442L128.982 177.009C129.274 178.411 129.216 180.084 128.736 181.79C127.64 185.685 124.759 188.273 122.302 187.569C119.845 186.865 118.742 183.136 119.839 179.24Z" fill="#F0AEAE"/>
<path d="M120.911 58.1731C120.911 58.1731 135.218 57.4378 136.26 67.0113C137.301 76.5848 140.634 131.109 140.634 131.109L132.909 167.911L121.892 166.367L126.761 119.521L120.911 58.1731Z" fill="#2A4A8D"/>
<path d="M121.32 10.0279C121.32 13.9191 119.181 18.9294 119.181 24.8133L112.692 23.1095C112.563 21.9688 111.905 18.4024 111.611 17.2906C111.761 18.3374 112.083 21.8533 111.726 22.8496L108.542 22.0121C108.52 21.4129 108.47 20.8137 108.399 20.2217C108.27 19.081 108.055 17.9548 107.762 16.843C107.912 17.8898 107.791 18.9655 107.433 19.9618C107.225 20.5105 106.954 21.0303 106.61 21.5067L90.8987 17.37C87.0926 15.925 86.51 21.0103 86.5702 27.3978C86.5702 27.3978 84.4238 5.01756 100.736 3.72525L103.197 1.24176C118.015 2.10087 121.32 5.19805 121.32 10.0279Z" fill="#2F2E41"/>
<path d="M86.3464 31.2145C86.9304 37.2253 86.2182 43.2727 85.3702 49.2582C85.0974 51.1846 84.794 53.1564 83.777 54.8713C82.76 56.5862 80.8677 58.0181 78.7 58.0626C82.1083 58.9915 86.0386 58.1773 88.6452 56.0024C91.2914 53.7943 92.4547 50.4476 92.5437 47.2096C92.6328 43.9717 91.7646 40.7809 90.9023 37.6354L86.3464 31.2145Z" fill="#2F2E41"/>
<path d="M117.5 8.05707C118.084 19.0158 117.372 30.0412 116.524 40.9539C116.251 44.466 115.948 48.0609 114.931 51.1876C113.914 54.3142 112.022 56.9247 109.854 57.0058C113.262 58.6993 117.193 57.2149 119.799 53.2497C122.445 49.2241 123.609 43.1224 123.698 37.219C123.787 31.3156 122.919 25.4983 122.056 19.7634L117.5 8.05707Z" fill="#2F2E41"/>
<path d="M94.5291 48L114.203 48.6204L134.492 75.9175C126.624 95.982 119.223 110.47 119.546 124.777C119.574 125.989 121.533 128.712 121.693 129.83C121.909 131.342 119.062 133.56 119.546 134.884L72 124.684C72.962 123.315 72.1337 121.584 72.7155 120.352C73.2268 119.269 75.1898 118.675 75.4282 117.625C76.7158 111.954 77.4028 102.492 72.5577 91.3803C69.1127 83.4796 84.2772 65.0485 83.4625 56.0651L94.5291 48Z" fill="#2A4A8D"/>
</svg>
