<svg width="123" height="360" viewBox="0 0 123 360" fill="none" xmlns="http://www.w3.org/2000/svg">
<path d="M43.6516 353.524L53.6548 353.523L58.4134 311.85L43.6495 311.851L43.6516 353.524Z" fill="#F0AEAE"/>
<path d="M77.9239 353.279C78.2353 353.846 78.3997 355.674 78.3997 356.333C78.3997 358.358 76.8796 360 75.0046 360H44.0258C42.7466 360 41.7096 358.88 41.7096 357.498V356.105C41.7096 356.105 40.1771 351.919 43.3323 346.758C43.3323 346.758 47.2537 350.799 53.1133 344.47L54.8412 341.089L67.3491 350.969L74.2821 351.891C75.7989 352.093 77.1437 351.86 77.9239 353.279Z" fill="#2F2E41"/>
<path d="M12.9886 353.524L22.9918 353.523L27.7504 311.85L12.9866 311.851L12.9886 353.524Z" fill="#F0AEAE"/>
<path d="M47.2609 353.279C47.5723 353.846 47.7367 355.674 47.7367 356.333C47.7367 358.358 46.2167 360 44.3416 360H13.3628C12.0836 360 11.0467 358.88 11.0467 357.498V356.105C11.0467 356.105 9.51416 351.919 12.6693 346.758C12.6693 346.758 16.5907 350.799 22.4503 344.47L24.1783 341.089L36.6862 350.969L43.6191 351.891C45.1359 352.093 46.4807 351.86 47.2609 353.279Z" fill="#2F2E41"/>
<path d="M14.6345 144.82L8.36255 252.453L11.4985 335.5H31.0168L43.2068 194.497L40.4989 335.5L58.5383 335.248L77.7027 173.046C77.7027 173.046 77.3542 156.11 71.4307 147.454C65.5072 138.799 14.6345 144.82 14.6345 144.82Z" fill="#2F2E41"/>
<path d="M87.2603 120.06L71.55 120.728L73.3851 139.681L104.184 164.766L108.366 157.992L86.2495 130.486L87.2603 120.06Z" fill="#F0AEAE"/>
<path d="M57.4931 50.3589L35.8896 48.1009L19.8612 56.3804V124.874L14.7644 136.384C13.1231 140.091 12.9503 144.36 14.2861 148.207L71.4308 147.454L70.037 139.175L72.8245 123.369L74.9152 65.4125L57.4931 50.3589Z" fill="#2A4A8D"/>
<path d="M70.3854 65.0362C70.3854 65.0362 75.2636 59.7674 78.748 73.3156C82.2325 86.8638 90.5951 135.035 90.5951 135.035L70.7338 135.412L65.5072 83.8531L70.3854 65.0362Z" fill="#2A4A8D"/>
<path d="M14.6346 122.992L12.544 178.581L4.87824 179.443L2.0907 124.498L14.6346 122.992Z" fill="#F0AEAE"/>
<path d="M27.8754 56.7567C27.8754 56.7567 15.3315 51.488 11.8471 65.0362C8.36263 78.5844 0 126.756 0 126.756L15.3315 127.944L32.7536 75.5737L27.8754 56.7567Z" fill="#2A4A8D"/>
<path d="M46.0937 43.8025C56.6203 43.8025 65.1538 34.5858 65.1538 23.2165C65.1538 11.8472 56.6203 2.63052 46.0937 2.63052C35.5672 2.63052 27.0337 11.8472 27.0337 23.2165C27.0337 34.5858 35.5672 43.8025 46.0937 43.8025Z" fill="#F0AEAE"/>
<path d="M9.13404 195.314C12.3141 195.197 14.7445 190.413 14.5625 184.628C14.3804 178.843 11.6549 174.248 8.47476 174.365C5.29466 174.482 2.86426 179.266 3.04631 185.051C3.22837 190.836 5.95393 195.43 9.13404 195.314Z" fill="#F0AEAE"/>
<path d="M119.127 173.069C121.266 170.525 119.784 165.308 115.817 161.416C111.85 157.525 106.9 156.432 104.761 158.976C102.621 161.52 104.103 166.737 108.07 170.629C112.037 174.52 116.987 175.613 119.127 173.069Z" fill="#F0AEAE"/>
<path d="M60.862 5.50068C58.9716 2.28923 57.6718 3.58842 54.1675 3.19204C52.159 2.96487 48.4015 -0.444714 46.4344 0.0487574C43.8414 0.699245 41.1837 1.37944 38.9756 2.98527C34.2942 0.0108226 32.6292 5.8328 28.57 9.73047C24.5108 13.6281 23.1341 20.4425 25.3211 25.8121C26.3625 28.3692 26.2829 31.0828 27.9768 33.1939C29.927 35.6244 31.0012 39.0071 31.1515 39.1943C31.963 40.2058 35.7856 40.9158 35.9415 41.1101C37.4721 43.0177 39.9384 42.4298 41.469 44.3375L42.3515 34.2451C41.1123 33.0162 39.83 31.7193 39.2519 30.0129C38.6737 28.3065 39.057 26.0716 40.5415 25.2166C41.7091 24.5441 43.2711 24.8465 44.2884 23.9325C45.8413 22.5374 44.8833 19.6191 46.0138 17.8113C46.6823 16.7424 47.9223 16.3122 49.0692 15.9527C50.9282 15.3699 52.7871 14.7873 54.646 14.2046C56.3752 13.6625 58.1513 13.1149 59.9463 13.2696C61.7412 13.4243 63.5872 14.4357 64.2965 16.2234C63.6422 12.484 62.7525 8.71214 60.862 5.50068Z" fill="#2F2E41"/>
</svg>
