<svg width="145" height="138" viewBox="0 0 145 138" fill="none" xmlns="http://www.w3.org/2000/svg">
<path d="M43.6521 74.2611C49.0422 74.2611 54.4477 74.1514 59.8356 74.351C61.8195 74.4245 64.3294 74.2989 66.2641 74.868C66.7432 75.0089 65.0217 75.0487 65.0728 75.2276C65.7624 77.6413 73.5897 78.3155 75.4798 78.5317C77.0184 78.7078 78.5648 78.7116 80.1101 78.7116C80.3334 78.7116 82.2924 78.7116 80.7844 78.7116C77.587 78.7116 74.3605 78.8169 71.1641 78.6891C70.5554 78.6647 64.6353 78.307 67.7476 78.307C70.3625 78.307 72.9773 78.307 75.5921 78.307C77.1163 78.307 76.1603 78.307 75.3449 78.307C74.8365 78.307 69.6108 78.1257 69.6357 78.0822C70.2596 76.9903 73.2786 77.6072 74.4009 77.2955C76.1135 76.8198 75.965 77.2619 74.1311 77.0033C71.1304 76.5801 68.5707 75.2201 65.4999 74.8904C61.5411 74.4655 57.7216 73.8814 54.104 72.1932C52.7708 71.571 51.4216 70.6343 49.9457 70.395C49.6543 70.3478 48.9299 70.5438 49.1365 70.7546C50.5932 72.2417 53.7218 72.7019 55.5875 73.1147C57.8551 73.6166 57.6049 73.4852 59.3636 73.7666C59.8238 73.8402 58.4348 73.6884 57.97 73.6542C55.5756 73.4781 53.1159 73.6506 50.7549 73.1822C48.019 72.6393 44.9762 72.497 42.3259 71.6537C41.8462 71.5011 45.3002 70.8272 45.5401 70.7996C46.9571 70.6365 52.6662 70.2152 47.9677 70.2152C47.2534 70.2152 42.622 70.2985 45.9447 69.7207C47.5985 69.4331 51.3789 67.9493 50.8223 70.4849C50.4217 72.3098 51.8094 72.7444 53.3397 72.9799C55.0799 73.2476 52.0797 73.0078 51.7439 72.7776C50.7368 72.087 50.4905 71.9382 49.0915 71.8111C48.2464 71.7342 50.7754 70.6784 51.0695 70.4849C51.5114 70.1942 51.9085 69.9757 52.553 70.1253C53.5946 70.3671 52.5554 71.3941 52.3283 71.7886C49.7271 76.3064 47.9089 80.3339 47.136 85.5896C47.0002 86.5134 46.5354 91.288 47.0012 92.9846C47.4907 94.768 48.4629 89.5746 48.9567 87.7923C49.812 84.7052 50.7212 83.4434 48.3273 81.3414C44.2611 77.771 40.7416 73.6806 37.2236 69.5858C36.3643 68.5857 36.2269 68.3912 37.0438 69.6982C39.0752 72.9485 41.2488 76.1126 43.3823 79.296C43.9654 80.166 44.5394 81.0422 45.1356 81.9033C45.3488 82.2113 45.4404 82.7408 45.8099 82.8024C47.2025 83.0345 44.3378 80.3838 43.7645 79.0937C42.7854 76.8909 49.2723 86.9283 47.5181 85.2749C46.7417 84.5431 44.147 81.1159 44.3713 81.4088C44.5425 81.6323 44.9371 82.3648 44.731 82.173C42.7348 80.3155 41.016 78.0994 39.269 76.0143C38.9579 75.6429 38.6457 75.2722 38.3474 74.8904C38.2364 74.7482 38.5904 75.1574 38.7071 75.295C40.5035 77.4139 42.2669 79.562 44.0117 81.7235C46.5327 84.8465 45.404 83.3736 43.5172 81.4313C42.7299 80.6208 41.1596 78.0425 40.9998 79.1611C40.9201 79.7185 41.437 80.2022 41.719 80.6896C42.4574 81.9653 43.2698 83.1968 44.0567 84.4432C44.7444 85.5327 47.7761 90.1796 48.6195 91.7483C50.102 94.5057 47.1809 91.6528 46.8888 91.3887C45.4339 90.0735 43.8485 88.6432 42.5956 87.118C40.3965 84.4408 43.9755 86.8375 44.9108 87.4327C47.2609 88.9283 46.6249 88.3052 45.1805 87.118C44.2121 86.3221 43.8672 85.8734 43.2475 84.7579C41.7544 82.0703 46.7922 86.3976 47.3833 87.0281C51.2753 91.1796 38.9466 79.3465 34.3016 76.0593C32.2738 74.6242 33.7623 76.8354 32.7731 76.4189C30.6584 75.5285 28.8441 71.8761 27.5134 70.1253C25.3527 67.2822 29.3056 72.4149 29.4914 72.6427C30.6588 74.0737 31.7371 75.9223 33.0428 77.2281C33.251 77.4362 32.8924 76.6588 32.8181 76.3739C32.7594 76.149 36.4782 80.264 36.7965 80.6221C37.8559 81.8139 38.2917 82.3198 37.3135 80.6896C36.355 79.0921 34.7213 77.2885 34.2566 75.4299C33.8348 73.7426 31.4674 71.8711 30.1208 70.6647C29.2803 69.9118 28.849 69.4128 28.2777 68.4844C27.6127 67.4038 27.242 68.7436 28.2327 70.0803C29.8513 72.2641 35.5191 77.9003 33.1327 76.5987C32.6445 76.3324 31.2737 75.0426 30.93 74.7106C30.4688 74.2651 29.937 72.8837 29.5364 73.3845C28.8233 74.2758 18.5299 60.9369 25.94 68.7766C26.0982 68.944 30.4653 73.5361 28.8846 73.1597C27.2933 72.7808 33.0341 71.5534 33.6272 71.4739C34.4042 71.3698 33.0985 71.3798 33.7621 70.0803C34.0604 69.4962 36.6001 66.7442 34.7511 67.3606C33.5864 67.7488 32.1719 68.1202 30.9749 68.3271C28.8811 68.689 31.4151 66.1236 30.6153 67.0234C29.5083 68.2688 30.5785 66.4572 30.5029 66.0794C30.4508 65.8188 30.0387 66.3722 29.896 66.5964C29.5859 67.0837 30.7939 65.8562 31.1547 65.4051C31.5912 64.8595 29.6855 66.297 29.8061 65.8546C29.8726 65.6109 30.8074 63.7309 30.4355 64.461C29.9434 65.4269 28.0137 68.2133 28.7272 69.3161C29.6421 70.73 36.1007 68.3762 36.2346 68.9789C36.3754 69.6124 35.1448 69.6868 34.5713 69.9904C33.9608 70.3136 32.4111 71.4795 32.6832 70.8445C32.8512 70.4524 32.0313 72.0633 31.3121 72.1033C30.6679 72.1391 32.6629 68.4114 32.7956 68.0799C32.9613 67.6656 32.0895 68.6312 31.7841 68.9565C31.0375 69.7518 28.8525 71.034 29.8061 71.5638C30.5774 71.9923 33.1186 70.4746 33.3575 69.6982C33.4956 69.2495 29.9017 69.7028 29.6713 69.7207C25.8418 70.0181 22.7821 70.8175 19.062 71.9235C17.6194 72.3523 26.2845 70.3306 26.0749 70.8895C25.2982 72.9608 22.595 74.3602 21.3322 76.1492C20.6872 77.0629 22.9913 74.6474 23.7822 73.8565C25.8267 71.812 27.4089 69.2771 30.5254 71.1592C36.258 74.6213 41.5164 79.9917 46.5067 84.4657C49.3425 87.0082 45.061 82.3154 44.6411 81.8134C43.0843 79.9524 44.222 81.868 42.6631 82.173C40.2135 82.6523 38.2673 80.1337 36.5718 78.8464C35.9914 78.4058 34.5233 77.3679 33.7846 77.1157C32.2563 76.5938 35.4673 79.8952 36.5493 81.0941C37.7524 82.4274 38.6949 83.4261 39.8309 84.7354C40.5568 85.572 38.2379 83.196 37.4259 82.4428C35.268 80.4412 34.8337 80.2858 36.4818 82.8249C36.7464 83.2324 37.5609 84.36 37.1337 84.1286C36.1616 83.602 33.8621 81.2924 34.3915 82.263C34.5897 82.6264 36.1008 83.2394 36.2795 83.162C38.8599 82.0455 38.5851 71.838 38.7296 70.5748C39.3664 65.0071 39.633 59.215 43.3823 54.8408C45.2007 52.7193 39.2429 65.1997 40.5502 62.7303C40.7322 62.3866 42.9907 58.5379 42.6631 58.4371C42.4089 58.3589 40.73 60.9097 42.0337 58.9541C44.1873 55.7237 46.6855 52.7483 48.9567 49.6036C51.3905 46.2338 49.4546 52.2216 49.2264 53.4472C48.6453 56.569 47.9439 59.7014 46.5516 62.5729C45.5522 64.6342 48.017 64.7928 50.0356 65.4051C62.3262 69.133 75.1233 69.8036 87.8872 69.9005C91.9334 69.9312 95.9792 69.6444 100.025 69.7207C102.603 69.7693 103.621 69.9125 103.486 72.5079C103.312 75.8591 104.808 76.6122 108.072 76.0143C110.305 75.6051 112.297 74.8186 112.297 72.2606C112.297 68.4837 109.21 70.7026 107.173 71.0244C106.392 71.1477 107.392 71.3871 107.645 71.4065C109.123 71.5202 109.754 71.2047 108.971 73.0024C108.797 73.4021 107.289 76.6851 107.577 76.3739C108.307 75.586 108.346 75.0528 108.409 74.0138C108.535 71.9269 110.598 70.0608 107.645 71.2267C106.26 71.7733 106.691 71.5059 107.263 71.9459C107.677 72.2649 106.772 74.4756 107.038 74.4409C107.819 74.339 108.395 72.9083 107.914 74.351C107.764 74.8031 110.489 72.1858 110.814 71.8335" stroke="#2A4A8D" stroke-linecap="square"/>
<g clip-path="url(#clip0_159_492)">
<path d="M122.908 83.7377L122.912 83.7454C123.027 83.9787 123.149 84.2405 123.227 84.5012C123.303 84.757 123.372 85.1183 123.266 85.5072C123.025 86.3919 122.154 86.6633 121.557 86.7828C120.864 86.9212 119.87 86.9801 118.526 87.0031C117.164 87.0264 115.372 87.013 113.049 86.9869C84.8848 86.6773 71.0346 85.4223 52.6216 83.3444C52.6992 83.7201 52.8034 84.1925 52.9438 84.7775C53.4269 86.7919 54.3359 90.1355 56.0503 95.4549C56.5139 96.8816 56.8321 98.0587 56.9376 98.9521C56.9901 99.3961 57 99.8441 56.9071 100.247C56.81 100.669 56.5772 101.124 56.0938 101.395C55.64 101.65 55.1472 101.639 54.7516 101.565C54.3479 101.488 53.9177 101.322 53.4774 101.109C52.5946 100.681 51.4816 99.971 50.1375 99.0284C48.8369 98.1248 39.4491 91.8239 31.8164 86.7009C27.4582 83.7758 23.6722 81.2347 22.2907 80.3017C22.29 80.3013 22.2893 80.3008 22.2886 80.3003L21.9467 80.0721C19.062 78.1462 16.79 76.6293 15.1565 75.3565C13.5039 74.0689 12.2866 72.875 11.8698 71.5722C11.397 70.0948 12.0176 68.8021 13.0975 67.6008C14.1607 66.4182 15.865 65.0987 18.0723 63.4686C22.3127 60.3169 25.6624 57.8405 28.3594 55.8467C38.0205 48.7045 39.3071 47.7534 43.1644 44.1251C44.0584 43.2832 44.8758 42.5947 45.6227 42.1349C46.3505 41.6869 47.1673 41.3578 48.0062 41.494C48.9018 41.6393 49.5223 42.2579 49.9552 43.0224C50.3816 43.7752 50.7051 44.7994 50.9793 46.0531L50.98 46.0566C51.6436 49.1449 51.8263 53.5389 51.323 57.616M122.908 83.7377L50.3303 57.495M122.908 83.7377L122.904 83.73M122.908 83.7377L122.904 83.73M51.323 57.616C51.3229 57.6165 51.3228 57.6171 51.3228 57.6176L50.3303 57.495M51.323 57.616C51.3231 57.6153 51.3232 57.6145 51.3232 57.6138L50.3303 57.495M51.323 57.616C51.2452 58.2662 51.2157 58.5736 51.2358 58.758M50.3303 57.495L50.3269 57.5231C50.0276 60.024 50.0242 60.0526 56.5962 59.8028M51.2358 58.758C51.2328 58.757 51.2299 58.7559 51.227 58.7548C51.189 58.7406 51.1754 58.7316 51.1763 58.7321C51.1771 58.7326 51.1926 58.7427 51.2124 58.7667C51.2384 58.7983 51.2462 58.8228 51.2463 58.8227C51.2464 58.8227 51.244 58.815 51.241 58.7965C51.239 58.7843 51.2373 58.7715 51.2358 58.758ZM51.2358 58.758C51.4441 58.8333 51.885 58.8966 52.7993 58.9036C53.6915 58.9104 54.9003 58.8665 56.5582 58.8035M56.5582 58.8035C56.5581 58.8035 56.558 58.8035 56.558 58.8035L56.5962 59.8028M56.5582 58.8035C58.2852 58.7374 70.6765 58.6525 82.6898 58.5701C93.0343 58.4992 103.098 58.4302 105.832 58.3768M56.5582 58.8035L56.5962 59.8028M56.5962 59.8028L105.832 58.3768M105.832 58.3768L105.852 59.3766L105.833 58.3768C105.833 58.3768 105.832 58.3768 105.832 58.3768ZM105.832 58.3768C109.942 58.2933 113.21 58.5624 115.67 59.0305C118.086 59.4904 119.854 60.166 120.834 60.9971C121.327 61.415 121.763 61.9971 121.773 62.728C121.784 63.4907 121.33 64.0649 120.813 64.4411C119.824 65.1603 118.097 65.558 115.895 65.6446C111.569 65.8236 99.1345 65.8066 86.5141 65.7895C78.2214 65.7782 69.8485 65.7668 63.6435 65.8108L63.6432 65.8108L63.4735 65.8119C58.4247 65.8461 54.6382 65.8718 51.8556 65.6464C49.085 65.422 47.0377 64.9373 45.7202 63.7168C44.3537 62.4509 43.9949 60.6155 43.98 58.3571C43.9686 56.6394 44.1613 54.4838 44.3992 51.8518C37.3493 58.5518 31.143 63.9314 22.3916 69.6782L22.3909 69.6787C21.2162 70.4486 20.1498 71.1639 19.3793 71.6925C19.3408 71.7189 19.3031 71.7448 19.2662 71.7702C19.3323 71.8163 19.4011 71.8642 19.4726 71.9138C20.3271 72.508 21.5496 73.3511 23.0192 74.3594C25.9582 76.3756 29.8812 79.0491 33.8163 81.7059C37.7522 84.3633 41.6965 87.0014 44.6795 88.948C45.9419 89.7719 47.027 90.4684 47.8643 90.9891M105.832 58.3768L47.8643 90.9891M122.904 83.73C122.636 83.2139 122.27 82.7593 121.702 82.3976C121.159 82.0515 120.486 81.8252 119.659 81.6616C118.028 81.3387 115.501 81.208 111.492 81.1235L111.491 81.1235M122.904 83.73L111.491 81.1235M111.491 81.1235C101.083 80.9077 86.6045 80.0804 74.0232 79.1025C67.7337 78.6137 61.9259 78.0879 57.3444 77.583C52.7217 77.0735 49.4453 76.5948 48.144 76.2162L48.1399 76.215L111.491 81.1235ZM47.8643 90.9891C47.6919 90.2837 47.4737 89.4465 47.2263 88.5574C47.2263 88.5574 47.2263 88.5573 47.2263 88.5573L48.1896 88.2892L47.8643 90.9891ZM86.5714 64.7895C99.1663 64.8067 111.548 64.8237 115.854 64.6454L45.4978 50.8039C44.9261 57.2025 44.5048 60.706 46.0518 62.6119C47.9295 64.9253 52.7073 64.8848 63.6364 64.8108C69.8725 64.7666 78.2683 64.7781 86.5714 64.7895Z" fill="#2A4A8D" stroke="#2A4A8D" stroke-width="2"/>
<path d="M40.9379 62.0726C41.5254 66.1162 41.9214 69.9118 41.5712 73.9795C41.443 75.4691 41.4366 76.9867 41.5042 78.48C41.5584 79.6779 41.6481 80.8896 41.8022 82.079C41.827 82.2697 41.8251 82.6549 41.9363 82.8315C42.5572 83.8175 43.2419 84.7713 43.896 85.7524C43.9462 85.8277 44.3201 86.314 44.1717 86.1696C43.6051 85.6184 43.0639 85.0615 42.443 84.5676C41.8197 84.0718 41.1286 83.67 40.5057 83.1743C39.2716 82.192 38.4142 80.8775 37.4209 79.6722C36.9607 79.1138 36.4456 78.7651 35.7072 78.7036C35.1985 78.6612 34.4838 78.0722 33.9636 77.8988C33.1704 77.6345 32.4336 77.3735 31.6984 76.96C31.0781 76.611 30.5595 75.9884 29.94 75.7008C29.5019 75.4974 28.9959 75.1281 28.6435 74.7992C28.0135 74.2112 27.4845 74.1587 26.7509 73.8752C26.1663 73.6494 25.6811 73.3387 25.0371 73.3387C24.7788 73.3387 24.5205 73.3387 24.2622 73.3387C23.8946 73.3387 24.213 73.22 24.4261 73.1003C25.035 72.7581 25.6362 72.4063 26.2367 72.0497C26.483 71.9035 27.9553 71.4307 27.7046 71.5728C26.468 72.2736 25.0991 73.3387 23.6363 73.3387" stroke="#2A4A8D" stroke-width="5" stroke-linecap="square"/>
<path d="M38.6578 77.6307C38.08 75.2615 37.4123 72.8839 37.3166 70.4329C37.2721 69.2932 37.3178 68.1793 37.1825 67.0426C37.0825 66.2023 36.7179 64.6446 37.2123 63.846C37.5094 63.3661 38.369 63.5071 38.8292 63.1531C39.2968 62.7934 37.978 62.8215 37.6594 63.1009C37.0032 63.6762 36.458 64.5946 36.0648 65.381C35.6717 66.1673 35.2905 66.9723 34.7907 67.6983C34.3409 68.3514 33.8643 68.8467 33.591 69.6132C33.0251 71.2004 32.7978 72.8024 33.293 74.4118" stroke="#2A4A8D" stroke-width="5" stroke-linecap="square"/>
<path d="M26.7211 69.8517C27.6003 69.3241 28.7381 69.3794 29.6494 68.7936C30.3826 68.3223 31.1538 67.9198 31.8773 67.4375C33.159 66.583 33.6042 65.1717 34.7162 64.2186C35.3358 63.6875 36.2336 63.801 36.7503 63.1158C37.2336 62.475 37.6263 61.9415 38.2257 61.4021C38.9552 60.7455 39.8098 59.7433 40.2673 58.8538C40.5029 58.3957 40.4803 58.0017 40.61 57.52C40.719 57.1154 40.7996 57.0983 40.8038 57.5722C40.8132 58.6524 40.8038 59.7331 40.8038 60.8134C40.8038 62.8487 40.9777 64.8633 41.2061 66.8861C41.293 67.6554 41.0664 69.2497 42.1152 69.3152C43.1816 69.3819 44.272 69.3152 45.3415 69.3152C46.22 69.3152 46.9655 69.4158 47.8228 69.5238C50.0503 69.8045 52.6769 69.1133 54.6927 70.3733C55.992 71.1853 57.1427 72.3594 58.5301 73.0184C60.1005 73.7644 62.1327 73.3979 63.813 73.622C65.9204 73.903 67.8822 74.631 70.0198 74.8067C73.5106 75.0936 77.0086 75.2686 80.5036 75.4848" stroke="#2A4A8D" stroke-width="5" stroke-linecap="square"/>
<path d="M68.5668 74.9482C65.2493 75.0502 61.9799 75.2764 58.6791 75.5965C57.7283 75.6887 56.7802 75.753 55.8253 75.753C54.1989 75.753 52.7056 75.3869 51.1013 75.2388C49.6517 75.105 48.2108 75.2263 46.7572 75.0228C45.3849 74.8306 44.057 74.461 42.6815 74.2776" stroke="#2A4A8D" stroke-width="5" stroke-linecap="square"/>
<path d="M41.4744 62.0727C43.4016 62.7585 45.4597 63.3347 47.2714 64.308C47.5233 64.4434 48.8212 65.0362 48.8212 65.4331C48.8212 65.6354 48.5135 65.8031 48.7169 65.992C49.0725 66.3222 50.985 66.7158 51.0566 67.1097C51.0751 67.2116 48.6119 67.0918 48.5083 67.0799C47.3823 66.9501 46.575 66.4454 45.5502 66.059C44.9288 65.8247 44.2743 65.8281 43.6203 65.8281C42.6119 65.8281 43.7718 65.9062 44.1419 65.9473C49.1526 66.504 54.2051 66.3282 59.2156 66.8191C61.877 67.0798 64.463 67.7068 67.0989 68.123C69.3066 68.4716 71.5414 68.5124 73.7528 68.8234C74.5539 68.9361 75.2929 69.0941 76.0627 69.345C77.7408 69.892 79.3651 70.1631 81.122 70.3435C83.8684 70.6254 86.6624 71.0833 89.4301 70.9694C91.3173 70.8917 93.1592 70.4163 94.9886 69.9858" stroke="#2A4A8D" stroke-width="5" stroke-linecap="square"/>
<path d="M53.8135 70.1198C56.5797 70.4728 59.2034 70.7213 61.98 70.3732C62.9581 70.2505 63.8996 70.1274 64.8859 70.1198C67.2474 70.1018 69.5834 70.1501 71.9273 70.4775C76.2566 71.0822 80.603 71.2405 84.937 71.7889C87.8478 72.1572 90.7187 72.2658 93.6474 72.2658" stroke="#2A4A8D" stroke-width="5" stroke-linecap="square"/>
<path d="M75.9435 66.6327C83.0196 65.7233 90.0789 65.0932 97.1718 66.0962C99.5304 66.4298 101.864 66.6327 104.243 66.6327" stroke="#2A4A8D" stroke-width="5" stroke-linecap="square"/>
<path d="M81.1742 74.5459C82.8996 74.6418 84.5089 75.0733 86.1963 75.4251C88.3397 75.8721 90.5102 76.2169 92.6937 76.3938C95.3191 76.6065 97.9602 76.5577 100.592 76.5577C104.584 76.5577 108.568 76.6929 112.558 76.826" stroke="#2A4A8D" stroke-width="5" stroke-linecap="square"/>
<path d="M77.687 76.2895C83.8108 77.8118 90.4198 78.8081 96.7322 78.1448C99.4854 77.8556 102.11 76.9327 104.847 76.6099C106.396 76.4271 107.891 76.9761 109.429 77.0644C110.954 77.152 112.48 77.0476 114.004 77.1613C114.145 77.1718 116.304 77.1926 116.18 77.0644C115.252 76.1074 112.33 75.9864 111.247 75.8573C107.677 75.4318 104.069 75.4848 100.48 75.4848C96.8063 75.4848 92.9916 75.3537 89.3556 74.7844C87.9366 74.5622 86.5905 74.1703 85.2276 73.7263C83.0054 73.0023 80.7151 72.3818 78.5439 71.5133C77.4977 71.0948 79.7122 70.9066 79.7361 70.9023C82.1495 70.4739 84.581 70.243 87.0233 70.0603C91.141 69.7523 95.2011 69.3034 99.3252 69.1215C101.924 69.0068 104.526 68.8474 107.119 68.6446C108.075 68.5698 108.963 68.49 109.906 68.3466C110.396 68.2719 111.794 67.8367 111.374 68.1007C110.939 68.3738 109.203 69.0716 109.191 69.0768C106.95 69.9859 105.44 70.5562 103.051 71.3121C99.9609 72.2898 98.2185 72.7229 95.093 73.4655C93.3303 73.8843 91.4513 74.171 89.7132 74.7248C89.2013 74.8879 90.7854 74.818 91.3227 74.8142C95.7475 74.7823 100.168 74.4755 104.593 74.5161C104.92 74.5191 109.634 74.2081 109.265 75.5518C109.044 76.3569 107.868 77.4462 107.41 77.884C106.01 79.2205 104.457 80.4656 102.738 81.3712C102.152 81.6797 100.202 82.1319 100.83 81.9226C102.25 81.4494 104.026 81.3938 105.502 81.1328C107.21 80.8308 108.953 80.7072 110.651 80.3578C111.506 80.1819 113.316 79.8103 113.885 79.0166C114.503 78.1544 113.352 76.489 112.946 75.7977C112.596 75.2019 111.91 74.5621 111.918 73.8157C111.932 72.4885 111.948 71.058 112.104 69.7399C112.185 69.0579 112.333 68.333 112.484 67.661C112.535 67.4344 112.727 65.3365 112.886 66.1559C113.633 69.9979 114.292 73.9943 113.825 77.9288C113.766 78.4288 113.255 80.8086 113.691 80.9539C114.176 81.1155 114.771 73.0654 114.839 72.3553C115.01 70.5539 115.017 68.7687 115.114 66.9681C115.136 66.5662 115.188 65.0788 115.271 66.3794C115.486 69.7614 116.327 73.0613 116.433 76.4534C116.473 77.7169 116.461 78.9891 116.448 80.2535C116.443 80.7253 116.505 81.377 116.314 81.8183C116.119 82.2694 116.198 80.8413 116.172 80.3504C116.132 79.5805 115.983 78.817 115.777 78.0778C115.362 76.5845 115.571 75.0142 115.375 73.4879C115.226 72.3231 115.051 71.1554 114.973 69.9858" stroke="#2A4A8D" stroke-width="5" stroke-linecap="square"/>
<path d="M117.832 64.6791C117.99 67.6649 117.499 70.6377 117.656 73.6191C117.703 74.5247 117.952 75.4088 118.095 76.3011C118.248 77.2529 118.287 78.1927 118.287 79.1549C118.287 80.2694 118.287 81.384 118.287 82.4985" stroke="#2A4A8D" stroke-width="5" stroke-linecap="square"/>
<path d="M120.287 64.77C120.421 67.5137 120.196 70.2829 120.196 73.0383C120.196 76.8152 120.682 80.4206 121.378 84.135" stroke="#2A4A8D" stroke-width="2" stroke-linecap="square"/>
<path d="M120.963 63.8002C120.963 68.8795 120.711 74.0509 120.222 79.108" stroke="#2A4A8D" stroke-linecap="square"/>
<path d="M121.497 65.2874C121.497 66.0427 121.497 66.798 121.497 67.5532C121.497 67.8685 121.538 68.2325 121.41 68.5306C121.276 68.8428 121.322 69.1954 121.322 69.5322C121.322 69.952 121.32 70.3647 121.369 70.7794C121.444 71.4237 121.41 72.0835 121.41 72.7341C121.41 73.5194 121.41 74.3046 121.41 75.0899" stroke="#2A4A8D" stroke-width="0.5" stroke-linecap="square"/>
<path d="M121.41 75.0899C121.49 76.4557 121.494 77.8187 121.541 79.184C121.553 79.5267 121.774 79.8455 121.826 80.1832C121.874 80.5021 121.943 80.8145 121.988 81.1338C122.009 81.2786 122.023 81.4205 122.023 81.5666C122.023 81.6257 121.911 81.2462 121.894 81.1533C121.854 80.9353 121.847 80.7277 121.847 80.5066C121.847 80.3514 121.873 80.1643 121.845 80.0106C121.826 79.9078 121.739 79.8443 121.721 79.748C121.702 79.6468 121.729 79.5407 121.714 79.4393C121.602 78.7159 121.69 77.9393 121.67 77.2075C121.657 76.7388 121.629 76.2738 121.629 75.8047C121.629 75.4471 121.555 75.1036 121.541 74.7495C121.532 74.5262 121.513 74.304 121.495 74.081C121.431 73.2876 121.449 72.572 121.561 71.7811C121.674 70.9791 121.672 70.1888 121.672 69.3815C121.672 68.9045 121.585 68.4599 121.585 67.9811C121.585 66.9287 121.544 65.8776 121.541 64.8255C121.538 63.8089 121.61 62.7538 121.497 61.7427" stroke="#2A4A8D" stroke-width="0.5" stroke-linecap="square"/>
<path d="M121.916 64.9311C121.907 65.8834 121.824 66.8299 121.824 67.7846C121.824 68.7693 121.824 69.7539 121.824 70.7386C121.824 71.4056 121.821 72.0727 121.824 72.7397C121.827 73.5568 121.911 74.3697 121.916 75.1863C121.938 78.4716 121.946 81.7739 122.195 85.05" stroke="#2A4A8D" stroke-width="0.5" stroke-linecap="square"/>
<path d="M44.9289 71.6113C47.1498 71.6113 49.321 72.1695 51.5157 72.1695" stroke="#2A4A8D" stroke-linecap="square"/>
<path d="M36.7791 82.2172C36.1034 81.8076 35.4054 81.5654 34.7076 81.3116C34.2056 81.1291 33.9395 80.4968 33.6532 80.096" stroke="#2A4A8D" stroke-linecap="square"/>
<path d="M25.2801 70.4949C24.2071 70.1848 23.1387 69.8011 22.0425 69.6017" stroke="#2A4A8D" stroke-linecap="square"/>
<path d="M43.031 51.9625C42.966 52.6776 42.6897 53.3549 42.6093 54.0713C42.5597 54.5126 42.3489 54.6124 42.2681 54.9892C42.1449 55.5643 42.2009 56.3136 42.3612 56.8747" stroke="#2A4A8D" stroke-linecap="square"/>
<path d="M38.2944 79.1302L40.2158 63.246L45.6189 63.0614C46.8682 63.0187 47.868 63.1957 48.6183 63.5923C49.3692 63.9838 49.8929 64.54 50.1893 65.2611C50.4857 65.9822 50.5772 66.8106 50.464 67.7465C50.3508 68.6824 50.0578 69.5189 49.5851 70.2559C49.1123 70.993 48.4527 71.5819 47.6063 72.0228C46.7605 72.4585 45.7181 72.6975 44.4793 72.7398L40.1068 72.8891L40.317 71.1518L44.627 71.0046C45.4806 70.9754 46.1827 70.8279 46.7333 70.5619C47.289 70.2957 47.7116 69.9311 48.0008 69.4681C48.2959 68.9998 48.482 68.4476 48.5589 67.8116C48.6358 67.1756 48.5833 66.6239 48.4014 66.1563C48.2195 65.6888 47.8814 65.3348 47.3869 65.0942C46.8931 64.8485 46.2141 64.7403 45.35 64.7699L41.9458 64.8861L40.2307 79.064L38.2944 79.1302ZM46.6844 71.7376L49.7564 78.7387L47.5078 78.8155L44.4981 71.8123L46.6844 71.7376ZM56.9781 78.7391C55.8225 78.7786 54.8563 78.5593 54.0796 78.0812C53.3086 77.5978 52.7521 76.9062 52.4099 76.0064C52.0736 75.1014 51.9792 74.0387 52.1269 72.8184C52.2745 71.5981 52.6284 70.515 53.1886 69.569C53.7547 68.6176 54.4727 67.8671 55.3427 67.3173C56.2185 66.7621 57.1978 66.4661 58.2805 66.4291C58.9051 66.4077 59.5095 66.4901 60.0935 66.6761C60.6775 66.8621 61.1912 67.1793 61.6346 67.6276C62.0786 68.0707 62.403 68.6672 62.6078 69.4172C62.8126 70.1671 62.8477 71.0979 62.7132 72.2096L62.6194 72.9852L53.3748 73.301L53.5662 71.7188L60.9369 71.467C61.0182 70.7948 60.9554 70.1997 60.7485 69.6815C60.5469 69.1632 60.2172 68.7599 59.7596 68.4717C59.3072 68.1834 58.7479 68.0506 58.0816 68.0733C57.3477 68.0984 56.6907 68.3011 56.1108 68.6813C55.5367 69.0562 55.0718 69.5356 54.7161 70.1193C54.3604 70.703 54.1428 71.3232 54.0634 71.9799L53.9358 73.0347C53.8269 73.9344 53.8908 74.6917 54.1275 75.3067C54.3699 75.9163 54.7526 76.3744 55.2753 76.681C55.7987 76.9823 56.4326 77.1203 57.1769 77.0949C57.661 77.0783 58.1064 76.9962 58.5131 76.8484C58.9256 76.6953 59.2915 76.4768 59.611 76.193C59.931 75.904 60.1942 75.55 60.4004 75.131L62.1205 75.5666C61.8606 76.1728 61.4819 76.711 60.9844 77.1811C60.4875 77.6461 59.8984 78.0163 59.2171 78.2919C58.5364 78.5623 57.7901 78.7114 56.9781 78.7391ZM71.4337 66.1343L71.2461 67.6855L65.031 67.8978L65.2186 66.3466L71.4337 66.1343ZM67.3753 63.4305L69.218 63.3675L67.8445 74.7223C67.7819 75.2393 67.8105 75.6246 67.9302 75.8779C68.0557 76.126 68.2329 76.2898 68.4617 76.3696C68.6963 76.4439 68.949 76.4765 69.2196 76.4673C69.4227 76.4603 69.5905 76.4443 69.7231 76.4192C69.8564 76.3889 69.963 76.3646 70.0429 76.3464L70.2188 77.9779C70.0883 78.0287 69.9083 78.0812 69.6788 78.1354C69.4487 78.1947 69.1619 78.2303 68.8183 78.242C68.2978 78.2598 67.8011 78.166 67.3283 77.9608C66.8607 77.7553 66.4905 77.4307 66.2176 76.9869C65.9499 76.5429 65.858 75.9745 65.9418 75.2816L67.3753 63.4305ZM77.4778 78.0389C76.3951 78.0759 75.4761 77.8524 74.7208 77.3684C73.9707 76.8843 73.4223 76.1898 73.0755 75.2851C72.734 74.3802 72.6377 73.3124 72.7865 72.0818C72.9366 70.8409 73.2941 69.7499 73.8589 68.8089C74.4289 67.8677 75.1509 67.1273 76.0249 66.5876C76.904 66.0478 77.885 65.7594 78.9677 65.7224C80.0504 65.6855 80.9668 65.909 81.7169 66.3932C82.4722 66.8772 83.0203 67.5742 83.3612 68.4843C83.7073 69.3942 83.8053 70.4696 83.6552 71.7106C83.5063 72.9412 83.1472 74.0245 82.5778 74.9605C82.0136 75.8964 81.2919 76.6342 80.4128 77.174C79.5388 77.7136 78.5605 78.0019 77.4778 78.0389ZM77.6767 76.3946C78.4991 76.3666 79.2012 76.134 79.7828 75.6971C80.3644 75.2601 80.824 74.696 81.1616 74.0048C81.4992 73.3135 81.7162 72.5698 81.8125 71.7735C81.9088 70.9772 81.8711 70.2396 81.6992 69.5606C81.5273 68.8816 81.2016 68.3392 80.7219 67.9333C80.2422 67.5275 79.5912 67.3386 78.7688 67.3667C77.9463 67.3948 77.244 67.6299 76.6618 68.072C76.0795 68.5142 75.6193 69.0834 75.2811 69.7798C74.9428 70.4762 74.7255 71.2226 74.6292 72.0189C74.5329 72.8151 74.571 73.5502 74.7435 74.224C74.916 74.8978 75.2424 75.4351 75.7226 75.8358C76.2029 76.2364 76.8543 76.4227 77.6767 76.3946ZM93.9023 72.3801L94.7541 65.3377L96.5968 65.2747L95.1557 77.1879L93.3131 77.2508L93.557 75.2343L93.4321 75.2386C93.0778 75.8531 92.5783 76.3825 91.9336 76.8268C91.2896 77.2659 90.5147 77.5009 89.609 77.5318C88.8594 77.5574 88.2128 77.4173 87.6692 77.1115C87.1263 76.8005 86.7282 76.3198 86.4752 75.6693C86.2227 75.0137 86.1578 74.1791 86.2804 73.1657L87.196 65.5959L89.0387 65.5329L88.1381 72.9786C88.033 73.8473 88.1938 74.5318 88.6206 75.0322C89.0525 75.5323 89.6511 75.7694 90.4163 75.7432C90.8743 75.7276 91.3543 75.5953 91.8561 75.3465C92.3631 75.0974 92.8071 74.727 93.188 74.2351C93.5741 73.743 93.8122 73.1247 93.9023 72.3801ZM98.5307 77.0726L99.9718 65.1595L101.752 65.0986L101.534 66.898L101.659 66.8938C101.949 66.2968 102.403 65.805 103.02 65.4184C103.637 65.0317 104.304 64.8261 105.023 64.8016C105.158 64.7969 105.327 64.7937 105.529 64.792C105.732 64.7902 105.884 64.7927 105.987 64.7995L105.762 66.6609C105.701 66.6476 105.561 66.6292 105.341 66.6058C105.127 66.5771 104.897 66.5669 104.653 66.5752C104.07 66.5952 103.534 66.7345 103.047 66.9931C102.565 67.2464 102.166 67.5896 101.849 68.0227C101.538 68.4504 101.35 68.9331 101.285 69.4709L100.373 77.0097L98.5307 77.0726Z" fill="white"/>
</g>
<defs>
<clipPath id="clip0_159_492">
<rect width="102.361" height="102.361" fill="white" transform="translate(74.4645 144.698) rotate(-136.675)"/>
</clipPath>
</defs>
</svg>
