<svg width="42" height="54" viewBox="0 0 42 54" fill="none" xmlns="http://www.w3.org/2000/svg">
<path d="M36.2541 26.602C41.4018 27.031 43.1178 24.9934 39.6323 22.5803C31.4281 16.8965 16.3066 5.63595 9.22821 2.04325C0.273276 -2.46102 -0.960041 0.809832 0.541385 8.6387C3.2225 22.4195 3.49067 34.8062 4.99209 42.1525C7.02974 52.1263 13.947 50.7321 13.947 44.2438C13.947 38.7743 11.1049 11.6415 10.4078 10.5155C9.3354 8.85319 30.9991 26.173 36.2541 26.602Z" fill="#97C2BF"/>
<path d="M30.3569 29.4982C28.1046 27.4605 26.3886 26.0131 24.9944 25.1015C15.7708 18.9882 17.7544 29.6596 17.9689 32.0728C18.5052 38.7223 21.6154 52.9866 22.6343 53.5765C26.7098 55.8287 27.7287 49.0183 25.4228 35.0221C25.2083 33.5743 25.7446 34.0033 30.1419 38.6686C35.6116 44.4065 37.4885 45.4254 40.5988 44.4065C43.9772 43.2268 41.5109 39.6334 30.3569 29.4982Z" fill="#97C2BF"/>
</svg>
