<svg width="42" height="54" viewBox="0 0 42 54" fill="none" xmlns="http://www.w3.org/2000/svg">
<path d="M5.74701 26.602C0.599262 27.031 -1.11665 24.9934 2.3688 22.5803C10.573 16.8965 25.6945 5.63595 32.7729 2.04325C41.7278 -2.46102 42.9611 0.809832 41.4597 8.6387C38.7786 22.4195 38.5104 34.8062 37.009 42.1525C34.9714 52.1263 28.0541 50.7321 28.0541 44.2438C28.0541 38.7743 30.8962 11.6415 31.5933 10.5155C32.6657 8.85319 11.002 26.173 5.74701 26.602Z" fill="#97C2BF"/>
<path d="M11.6442 29.4982C13.8965 27.4605 15.6125 26.0131 17.0067 25.1015C26.2303 18.9882 24.2467 29.6596 24.0322 32.0728C23.4959 38.7223 20.3857 52.9866 19.3668 53.5765C15.2913 55.8287 14.2724 49.0183 16.5783 35.0221C16.7928 33.5743 16.2565 34.0033 11.8592 38.6686C6.38947 44.4065 4.51259 45.4254 1.40233 44.4065C-1.97606 43.2268 0.490164 39.6334 11.6442 29.4982Z" fill="#97C2BF"/>
</svg>
