<svg width="128" height="122" viewBox="0 0 128 122" fill="none" xmlns="http://www.w3.org/2000/svg">
<path fill-rule="evenodd" clip-rule="evenodd" d="M126.902 106.386C123.91 77.3286 114.062 67.3762 81.6638 60.834C62.3852 56.9365 57.2698 52.0995 52.2588 33.1341C47.0041 13.1248 41.9235 6.44314 28.7695 2.23247C22.262 0.14454 8.34244 -0.655555 0.895486 0.597204C-2.6888 1.18878 -4.53314 2.23254 -4.84634 3.86809C-5.36832 6.6868 -4.49823 26.2437 -3.17588 41.0331C-2.65389 46.8097 -2.51484 46.984 1.73062 47.4364C12.2399 48.55 16.1723 51.4731 17.4946 59.268C17.8078 61.0776 19.1302 68.4549 19.2346 69.3249C22.4709 92.8837 28.004 97.6512 59.7405 104.298C74.2169 107.325 78.81 111.153 79.6799 121.001C79.7843 122.219 79.5759 122.219 85.3525 121.558C87.4752 121.314 96.9405 121.001 106.406 120.827C129.721 120.41 128.433 121.349 126.902 106.386ZM90.3287 116.582C81.7682 117.173 82.5338 117.277 82.2554 115.329C81.4898 109.656 79.2627 106.803 73.2773 103.637C69.4842 101.618 62.8724 99.8783 54.2075 98.556C32.4582 95.2153 26.0899 88.2207 22.0185 63.4091C20.4873 53.9786 19.861 51.6123 18.3994 49.5939C14.4671 44.1653 7.82046 44.4434 1.06948 44.165C1.06948 44.165 0.512699 35.7436 0.373503 34.4213C0.129911 31.6026 -0.287571 31.7073 6.04582 32.9949C15.1631 34.8392 19.5477 37.136 23.3756 42.1122C27.308 47.2276 28.4911 51.0903 31.449 68.8029C34.3373 86.0632 42.2367 91.3874 69.867 94.7281C88.4148 96.99 94.5394 101.549 96.1401 114.25L96.3834 116.164L90.3287 116.582ZM99.2372 116.06C98.8892 114.563 98.0889 111.501 97.8453 110.04C95.5138 96.6768 89.3192 92.3966 68.5443 89.8562C49.4745 87.5247 46.1686 86.2716 40.3572 79.1378C37.5037 75.6231 35.8685 72.3173 35.2073 68.6982C34.1981 63.3043 35.5205 71.6912 31.3794 50.3595C28.4563 35.3612 16.5898 26.2784 1.80029 27.8095L-0.0439796 28.0186C-0.705158 23.7384 -0.740061 15.1778 -1.54044 6.02569C-1.50564 6.02569 14.0843 5.26011 20.5917 6.02569C36.2861 7.90483 45.7514 18.2402 49.8924 38.0059C53.5463 55.5098 61.5849 63.1655 79.7499 66.367C101.012 70.1253 110.721 75.3799 117.646 86.8635C120.325 91.283 123.631 103.985 124.014 111.258L124.222 115.155L99.2372 116.06Z" fill="#97C2BF"/>
</svg>
