<svg width="127" height="122" viewBox="0 0 127 122" fill="none" xmlns="http://www.w3.org/2000/svg">
<path fill-rule="evenodd" clip-rule="evenodd" d="M0.723633 106.386C3.71643 77.3286 13.5648 67.3762 45.9635 60.834C65.2427 56.9365 70.3583 52.0995 75.3695 33.1341C80.6243 13.1248 85.7051 6.44314 98.8595 2.23247C105.367 0.14454 119.287 -0.655555 126.734 0.597204C130.319 1.18878 132.163 2.23254 132.476 3.86809C132.998 6.6868 132.128 26.2437 130.806 41.0331C130.284 46.8097 130.145 46.984 125.899 47.4364C115.39 48.55 111.457 51.4731 110.135 59.268C109.822 61.0776 108.499 68.4549 108.395 69.3249C105.158 92.8837 99.625 97.6512 67.8875 104.298C53.4107 107.325 48.8175 111.153 47.9475 121.001C47.8431 122.219 48.0515 122.219 42.2748 121.558C40.152 121.314 30.6864 121.001 21.2208 120.827C-2.09517 120.41 -0.807571 121.349 0.723633 106.386ZM37.2984 116.582C45.8592 117.173 45.0935 117.277 45.3719 115.329C46.1375 109.656 48.3647 106.803 54.3503 103.637C58.1435 101.618 64.7555 99.8783 73.4207 98.556C95.1707 95.2153 101.539 88.2207 105.611 63.4091C107.142 53.9786 107.768 51.6123 109.23 49.5939C113.162 44.1653 119.809 44.4434 126.56 44.165C126.56 44.165 127.117 35.7436 127.256 34.4213C127.5 31.6026 127.917 31.7073 121.584 32.9949C112.466 34.8392 108.082 37.136 104.254 42.1122C100.321 47.2276 99.1379 51.0903 96.1799 68.8029C93.2915 86.0632 85.3919 91.3874 57.7607 94.7281C39.2124 96.99 33.0876 101.549 31.4868 114.25L31.2435 116.164L37.2984 116.582ZM28.3896 116.06C28.7376 114.563 29.538 111.501 29.7816 110.04C32.1132 96.6768 38.3079 92.3966 59.0835 89.8562C78.1538 87.5247 81.4598 86.2716 87.2714 79.1378C90.125 75.6231 91.7603 72.3173 92.4215 68.6982C93.4307 63.3043 92.1083 71.6912 96.2495 50.3595C99.1726 35.3612 111.04 26.2784 125.83 27.8095L127.674 28.0186C128.335 23.7384 128.37 15.1778 129.17 6.02569C129.136 6.02569 113.545 5.26011 107.038 6.02569C91.3427 7.90483 81.8771 18.2402 77.7359 38.0059C74.0819 55.5098 66.0431 63.1655 47.8775 66.367C26.6148 70.1253 16.9056 75.3799 9.98042 86.8635C7.30082 91.283 3.99483 103.985 3.61203 111.258L3.40356 115.155L28.3896 116.06Z" fill="#97C2BF"/>
</svg>
