<svg width="119" height="119" viewBox="0 0 119 119" fill="none" xmlns="http://www.w3.org/2000/svg">
<path d="M86.8398 72.7289C81.569 74.9201 77.3347 75.7197 70.8796 75.7197C58.443 75.7197 48.0496 69.679 34.6655 70.5673C18.8237 71.6333 22.3178 78.1181 25.3381 77.289C31.4972 75.542 33.1554 75.0978 37.0344 74.9202C52.9946 74.2095 60.0124 80.5757 74.4921 79.8355C79.3779 79.5986 85.2704 78.0887 88.8533 76.5193C94.6866 73.9431 91.9032 70.5969 86.8398 72.7289Z" fill="#97C2BF"/>
<path d="M27.1442 45.6939C35.8201 41.4299 39.6104 41.1042 49.6188 43.7692C69.2508 48.951 72.4487 49.3065 80.7398 47.1449C84.7076 46.1085 91.3701 42.6737 91.3701 41.6669C91.3701 39.4461 88.4682 39.1498 85.1518 41.0449C72.8337 48.0923 61.7 44.095 54.3566 42.1111C47.6349 40.3048 39.3143 37.4918 33.0368 38.8539C25.9894 40.364 19.6823 44.243 21.0147 46.2566C22.0807 47.8852 22.8506 47.8258 27.1442 45.6939Z" fill="#97C2BF"/>
<path d="M100.52 48.5074C95.1009 52.2975 91.8141 54.0149 87.6094 55.2586C76.0316 58.6934 64.8683 58.9601 52.2837 56.0286C40.0544 53.2156 31.6449 53.5117 22.3471 57.065C14.9444 59.9076 11.9537 62.1581 13.908 63.4313C14.7964 63.9939 14.7076 64.0234 23.7981 61.0327C35.2279 57.2721 41.5646 56.8872 53.024 59.3153C67.474 62.3652 79.111 62.1579 90.2151 58.6638C96.5814 56.6503 105.05 51.6462 105.228 49.7511C105.435 47.6783 102.74 46.938 100.52 48.5074Z" fill="#97C2BF"/>
</svg>
