<svg width="185" height="197" viewBox="0 0 185 197" fill="none" xmlns="http://www.w3.org/2000/svg">
<path d="M99.6883 23.3323C89.3784 21.9141 78.8092 21.2154 68.4043 21.1766C49.8904 20.7716 28.5901 23.9594 31.0466 46.5709C32.4264 57.5757 37.2113 67.6685 41.17 78.8353C43.3103 84.6157 45.4464 90.4431 47.5761 96.2018C55.0844 115.42 60.5413 135.339 77.8749 147.371C91.0708 156.094 108.805 158.699 123.935 153.808C161.36 141.574 177.313 90.033 162.03 55.561C151.188 31.4443 123.503 26.4458 99.8014 23.3531L99.6864 23.3377L99.6883 23.3323Z" fill="#355692"/>
<path d="M107.186 49.8208C97.5631 46.9885 87.5913 44.803 77.6825 43.2684C60.099 40.2184 39.3517 40.1828 38.4902 62.0317C38.2464 72.6918 41.3764 82.9751 43.5671 94.1605C44.7878 99.9636 45.9979 105.811 47.2117 111.592C51.6444 130.942 54.023 150.663 68.8352 164.597C80.1736 174.788 96.7022 179.817 111.812 177.345C149.205 171.103 171.705 124.402 162.023 89.4321C155.108 64.9453 129.437 56.2086 107.291 49.8568L107.183 49.8257L107.186 49.8208Z" stroke="white" stroke-width="2.01711" stroke-miterlimit="10"/>
</svg>
