<svg width="207" height="227" viewBox="0 0 207 227" fill="none" xmlns="http://www.w3.org/2000/svg">
<path opacity="0.9" d="M108.632 21.8908C85.4289 16.7988 78.3829 30.0298 75.2668 51.1205C74.3709 56.577 73.5666 62.1364 72.445 67.7216C69.9134 81.1346 64.6823 95.2359 57.4652 107.383C50.0966 120.246 39.9811 132.458 33.1334 145.039C27.3049 155.698 23.5528 167.826 28.8875 179.127C39.1982 199.529 69.3092 210.501 93.9788 212.031C120.199 213.47 145.572 201.216 163.281 182.146C221.475 118.481 185.396 42.3618 108.738 21.9089L108.625 21.8896L108.632 21.8908Z" fill="#2A4A8D"/>
<path d="M36.7289 150.943C20.9135 139.836 24.9695 128.339 35.8978 114.869C38.6772 111.332 41.5671 107.793 44.2953 104.046C50.9426 95.1553 56.5191 84.2603 59.83 73.2523C63.4883 61.7622 65.2407 48.9791 69.02 37.9583C72.2034 28.6027 77.4082 19.6863 87.1193 16.6628C105.018 11.6189 128.155 23.6384 142.639 37.58C157.922 52.5025 164.531 74.4526 162.844 95.5581C156.693 165.452 91.225 185.693 36.8068 150.995L36.7332 150.938L36.7289 150.943Z" stroke="white" stroke-width="1.8968" stroke-miterlimit="10"/>
</svg>
