<svg width="104" height="106" viewBox="0 0 104 106" fill="none" xmlns="http://www.w3.org/2000/svg">
<path opacity="0.9" d="M-83.8775 96.2161C-84.0961 93.9386 -84.1134 91.6459 -83.8923 89.3441C-83.007 80.1459 -78.3879 71.6583 -72.7972 64.217C-59.7614 46.8546 -41.5249 34.2643 -22.8678 23.34C-3.85837 12.2085 16.1837 2.19987 38.6627 9.78102C54.9387 15.2672 60.327 26.1576 65.5693 41.9181C68.4656 50.1523 71.4913 58.3948 75.1895 66.4056C83.2113 83.7618 101.658 103.083 95.9179 123.604C91.2419 140.324 73.9459 146.873 58.7735 151.094C39.1856 156.534 18.8851 159.49 -1.44747 159.839C-17.0488 160.1 -33.2747 158.674 -46.7876 151.046C-58.5506 144.414 -67.2997 133.607 -74.1681 122.124C-78.9405 114.14 -83.0032 105.326 -83.8775 96.2161Z" fill="#2A4A8D"/>
<path d="M-65.0949 78.8658C-65.1358 76.6964 -64.9929 74.5219 -64.6203 72.3526C-63.1503 63.7057 -58.2554 55.9981 -52.5336 49.3471C-39.1913 33.8399 -21.3523 23.2279 -3.23247 14.2186C15.2242 5.0409 34.5639 -2.99853 54.9295 5.79124C69.6703 12.1513 73.9221 22.8552 77.6788 38.1582C79.7919 46.1619 82.0224 54.1911 84.8961 62.0366C91.1283 79.0444 106.921 98.6759 100.137 117.7C94.6093 133.197 78.0718 138.164 63.6627 141.068C45.0683 144.815 25.9889 146.162 7.05244 145.029C-7.47402 144.161 -22.4547 141.64 -34.4853 133.452C-44.9488 126.326 -52.3294 115.464 -57.9032 104.097C-61.7773 96.1952 -64.9367 87.5586 -65.1 78.8658H-65.0949Z" stroke="#97C2BF" stroke-width="4" stroke-miterlimit="10"/>
</svg>
