<svg width="119" height="129" viewBox="0 0 119 129" fill="none" xmlns="http://www.w3.org/2000/svg">
<path opacity="0.9" d="M90.3373 9.67115C67.1345 4.57918 60.0885 17.8101 56.9724 38.9009C56.0765 44.3573 55.2721 49.9167 54.1506 55.5019C51.619 68.9149 46.3879 83.0162 39.1708 95.163C31.8022 108.026 21.6866 120.238 14.8389 132.819C9.01043 143.479 5.25839 155.606 10.5931 166.907C20.9038 187.309 51.0148 198.281 75.6844 199.811C101.904 201.25 127.278 188.997 144.987 169.926C203.181 106.261 167.102 30.1421 90.4433 9.68925L90.3303 9.66994L90.3373 9.67115Z" fill="#2A4A8D"/>
<path d="M36.7289 163.943C20.9135 152.836 24.9695 141.339 35.8978 127.869C38.6772 124.332 41.5671 120.793 44.2953 117.046C50.9426 108.155 56.5191 97.2602 59.83 86.2522C63.4883 74.7621 65.2407 61.9791 69.02 50.9583C72.2034 41.6026 77.4082 32.6863 87.1193 29.6627C105.018 24.6189 128.155 36.6384 142.639 50.5799C157.922 65.5024 164.531 87.4526 162.844 108.558C156.693 178.452 91.225 198.692 36.8068 163.995L36.7332 163.938L36.7289 163.943Z" stroke="#97C2BF" stroke-width="3" stroke-miterlimit="10"/>
</svg>
