<?xml version="1.0" encoding="UTF-8"?>
<svg id="Calque_1" data-name="Calque 1" xmlns="http://www.w3.org/2000/svg" viewBox="0 0 2548.13 3145.52">
  <defs>
    <style>
      .cls-1 {
        fill: #88d1ca;
      }

      .cls-1, .cls-2, .cls-3, .cls-4, .cls-5, .cls-6, .cls-7, .cls-8, .cls-9, .cls-10, .cls-11 {
        stroke-width: 0px;
      }

      .cls-2 {
        fill: #044d95;
      }

      .cls-3 {
        fill: #7cc5c0;
      }

      .cls-4 {
        fill: #72afa9;
      }

      .cls-5 {
        fill: #73afaa;
      }

      .cls-6 {
        fill: #054e95;
      }

      .cls-7 {
        fill: #f9d412;
      }

      .cls-8 {
        fill: #87bbb5;
      }

      .cls-9 {
        fill: #054e94;
      }

      .cls-10 {
        fill: #d79812;
      }

      .cls-11 {
        fill: #7bc5c0;
      }
    </style>
  </defs>
  <path class="cls-11" d="m1104.79,1244.98c316.49-6.56,632.89-13.9,949.21-22.02,9.81-.25,54.02-1.39,63.83-1.65-630.37,302.98-1260.75,605.96-1891.13,908.94l878.08-885.27Z"/>
  <path class="cls-4" d="m2117.83,1221.31s-696.83,18.18-1013.04,23.67l-86.67-48.25L4.24,577.43l2113.59,643.88Z"/>
  <path class="cls-3" d="m2032.62,610.64c36.96,91.65,179.95,375.3,194.07,430.75-269.89-145.19-539.61-290.55-809.17-436.07-265.25-143.2-530.43-286.62-795.55-430.25l1410.65,435.57Z"/>
  <path class="cls-6" d="m1836.88,2591.05c166.07,172.86,85.8,469.73-142.65,538.08-257.55,77.05-505.09-135.25-430.81-402.41,68.56-246.59,399.29-316.96,573.46-135.67Zm-264.42,28.14c-248.67,18.41-222.12,415.3,31.69,396.15,245.19-18.5,222.45-414.97-31.69-396.15Z"/>
  <path class="cls-9" d="m69.75,2553.19c89.68-90.95,263.07-70.81,364.28-10.22,14.12,8.45,44.76,22.05,36.87,39.53-13.2,29.25-52.06,66.97-69.01,96.56-55.12-38.48-119.42-70.4-189.01-60.85-53.67,7.36-76.88,69.52-28.95,99.12,92.85,57.32,294.2,40.15,310.13,196.39,26.41,259.06-281.74,273.35-447.42,168.12-13.17-8.36-55.3-33.57-45.06-49.87,6.22-9.9,69-85.63,74.55-87.04,18.38,3.78,34.42,21.9,52.03,31.72,53.08,29.61,116.33,52.37,177.84,37.67,48.4-11.56,72.96-66.14,28.73-97.49-77.2-54.73-218.25-35.99-284.79-127.06-48.71-66.67-38.14-177.82,19.79-236.57Z"/>
  <path class="cls-2" d="m2184.1,2944.43v189.35h-137.28v-634.34h286.4c199.61,0,290.72,266.15,139.25,390.15-27.53,22.54-104.64,54.83-139.25,54.83h-149.12Zm0-317.17l-4.76,198.85c46.49-3,96.8,6.12,142.04-4.76,7.17-1.23,42.61-18.18,49.69-23.68,39.43-30.66,46.55-100.06,13.92-136.97-44.61-50.46-140.88-28.76-200.9-33.43Z"/>
  <path class="cls-9" d="m1089.54,2945.64l81.45,86.36c-109.56,128.8-313.94,149.88-451.13,53.57-188.16-132.09-175.23-436.67,24.54-551.24,127.86-73.33,323.94-59.56,421.59,56.77-22.56,14.53-66.68,87.73-85,95.56-11.14,4.77-47.75-29.64-61.79-37.72-182.39-105.01-349.55,89.56-262.54,267.27,49.35,100.8,170.06,123.44,264.37,69.9,17.61-10,53.48-46.7,68.51-40.47Z"/>
  <path class="cls-11" d="m2212.51,1888.78l-586.97,168.08c31.53-34.43,310.02-338.46,619.9-677.05.59-.64,41.78-45.65,42.37-46.3-1.41,22.98-3.05,46.13-4.91,69.44-13.68,171.38-38.29,333.52-70.4,485.83Z"/>
  <path class="cls-5" d="m2032.62,610.64L2070.44,0l156.24,1041.4s-10.47-21.44-13.91-30.9c-49.49-136.2-132.39-262.43-180.16-399.86Z"/>
  <path class="cls-5" d="m2287.81,1333.51c4.99,40.92,9.59,82.84,13.71,125.74,4.06,42.27,7.49,83.7,10.35,124.25l52.07,788.11-151.43-482.83c11.05-109.65,24.69-222.75,41.35-339.02,10.56-73.7,21.92-145.8,33.95-216.25Z"/>
  <path class="cls-8" d="m2506,1098.23c-17.34,9.48-35.05,19.53-53.08,30.19-17.68,10.45-34.7,20.93-51.06,31.35,17.06-35.06,34.93-70.64,53.67-106.7,27.7-53.3,55.67-104.5,83.67-153.63-3.99,26.87-8.22,54.02-12.71,81.46-6.52,39.83-13.36,78.94-20.49,117.33Z"/>
  <path class="cls-1" d="m2506,1098.23c7.1,27.38,14.13,55.03,21.07,82.94,5.72,22.98,11.3,45.83,16.75,68.54-23.92-13.26-48.8-27.95-74.37-44.21-24.06-15.3-46.58-30.63-67.6-45.73,16.36-10.42,33.38-20.89,51.06-31.35,18.03-10.66,35.75-20.72,53.08-30.19Z"/>
  <path class="cls-7" d="m2198.94,1204.96c8.65-19.69,17.25-39.89,25.76-60.61,10.08-24.54,19.56-48.66,28.48-72.32,7.45,6.86,103.99,94.86,109.08,98.06-54.44,11.62-108.88,23.25-163.33,34.87Z"/>
  <path class="cls-10" d="m2198.94,1204.96c16.08,14.64,32.3,29.68,48.61,45.13,19.17,18.16,37.77,36.2,55.81,54.1,3.96-9.32,55.53-129.34,58.85-134.35-54.42,11.71-108.85,23.42-163.27,35.13Z"/>
  <path class="cls-9" d="m2184.1,2627.26l-.02,194.11c41.41-5.03,97.99,6.71,137.31-.02-45.24,10.88-95.55,1.76-142.04,4.76l4.76-198.85Z"/>
</svg>