<svg width="110" height="115" viewBox="0 0 110 115" fill="none" xmlns="http://www.w3.org/2000/svg">
<g clip-path="url(#clip0_920_17694)">
<path d="M0.568359 112.257L2.31551 110.188C3.53446 111.162 4.75341 111.811 6.29741 111.811C7.84139 111.811 8.20709 111.324 8.20709 110.553C8.20709 109.822 7.76012 109.417 5.52541 108.849C3.29067 108.281 1.1372 107.429 1.1372 104.791C1.1372 102.398 3.04688 100.774 5.7692 100.774C7.57114 100.741 9.32693 101.344 10.7262 102.479L9.22286 104.67C8.00392 103.858 6.86625 103.372 5.72857 103.372C4.59088 103.372 4.02204 103.899 4.02204 104.548C4.02204 105.44 4.59088 105.725 6.90689 106.333C9.22286 106.942 11.1326 107.997 11.1326 110.309C11.1326 112.947 9.10096 114.407 6.21615 114.407C4.13454 114.399 2.12709 113.635 0.568359 112.257Z" fill="#004C99"/>
<path d="M14.0586 100.897H24.0946V103.493H16.9841V106.211H23.2413V108.808H16.9841V111.608H24.2165V114.205H14.0586V100.897ZM18.0811 99.8418L15.5213 97.9347L17.9998 96.8799L20.3159 99.8418H18.0811Z" fill="#004C99"/>
<path d="M89.7964 15.2554L109.502 34.933H70.0898L89.7964 15.2554Z" fill="#79C6C0"/>
<path d="M89.7964 67.4719L109.502 47.7944H70.0898L89.7964 67.4719Z" fill="#79C6C0"/>
<path d="M19.7063 15.2554L39.4126 34.933H0L19.7063 15.2554Z" fill="#79C6C0"/>
<path d="M19.7063 67.4719L39.4126 47.7944H0L19.7063 67.4719Z" fill="#79C6C0"/>
<path d="M54.8118 62.3596L74.5184 82.0371H35.1055L54.8118 62.3596Z" fill="#004C99"/>
<path d="M54.8118 19.6777L74.5184 0H35.1055L54.8118 19.6777Z" fill="#004C99"/>
<path d="M67.2852 41.3027L54.8115 53.7585V28.8064L67.2852 41.3027Z" fill="#FFD500"/>
<path d="M42.2979 41.3027L54.8123 53.7585V28.8064L42.2979 41.3027Z" fill="#DB9506"/>
<path d="M27.1826 101.472H30.3519L33.8462 107.112L37.3405 101.472H40.5098V114.78H37.5843V106.097L33.8462 111.777H33.7649L30.0675 106.138V114.78H27.1826V101.472Z" fill="#004C99"/>
<path d="M44.085 101.472H54.121V104.069H47.0104V106.787H53.2677V109.384H47.0104V112.183H54.2022V114.78H44.085V101.472ZM48.1075 100.417L45.5477 98.5104L48.0263 97.4556L50.3422 100.417H48.1075Z" fill="#004C99"/>
<path d="M62.6945 108.166C62.6834 107.253 62.8559 106.348 63.2017 105.504C63.5475 104.66 64.0593 103.893 64.7072 103.25C65.3557 102.606 66.1262 102.1 66.974 101.76C67.8218 101.419 68.729 101.252 69.6426 101.268C72.1617 101.268 73.665 102.121 74.9243 103.338L73.0555 105.488C71.9988 104.555 70.9836 103.987 69.6426 103.987C67.4078 103.987 65.7824 105.853 65.7824 108.126C65.7824 110.397 67.3669 112.305 69.6426 112.305C71.1459 112.305 72.0806 111.696 73.1367 110.722L75.0061 112.629C73.6242 114.09 72.1209 114.982 69.5206 114.982C68.6197 114.999 67.7247 114.833 66.889 114.497C66.0533 114.16 65.2943 113.658 64.6567 113.023C64.0197 112.386 63.5176 111.628 63.1804 110.794C62.8432 109.959 62.6779 109.065 62.6945 108.166Z" fill="#004C99"/>
<path d="M77.8506 100.896H80.7761V114.205H77.8506V100.896Z" fill="#004C99"/>
<path d="M87.6014 103.574H83.5381V100.896H94.5896V103.574H90.5269V114.205H87.6014V103.574Z" fill="#004C99"/>
<path d="M100.97 108.93L95.8496 100.896H99.2632L102.432 106.252L105.683 100.896H109.015L103.895 108.89V114.205H100.97V108.93Z" fill="#004C99"/>
</g>
<defs>
<clipPath id="clip0_920_17694">
<rect width="109.889" height="115" fill="white"/>
</clipPath>
</defs>
</svg>
